<svg width="275" height="100" viewBox="0 0 275 100" fill="none" xmlns="http://www.w3.org/2000/svg">
<path d="M265.105 79.1844C262.793 79.1844 260.877 78.3916 259.357 76.8059C257.904 75.1542 257.177 72.4784 257.177 68.7785V31.7134C257.177 30.9206 256.78 30.5242 255.988 30.5242H253.114C252.056 30.5242 251.528 30.1277 251.528 29.3349C251.528 28.8064 251.825 28.3439 252.42 27.9474C254.6 26.4278 256.351 24.8091 257.672 23.0913C258.994 21.3074 260.15 18.8959 261.141 15.8567C261.603 14.4692 262.165 13.7755 262.826 13.7755C263.553 13.7755 263.916 14.3041 263.916 15.3612V26.3618C263.916 27.2867 264.378 27.7492 265.303 27.7492H271.745C272.802 27.7492 273.331 28.2117 273.331 29.1367C273.331 30.0617 272.802 30.5242 271.745 30.5242H265.303C264.378 30.5242 263.916 30.9866 263.916 31.9116V68.8776C263.916 70.3311 264.147 71.4873 264.61 72.3462C265.072 73.1391 265.931 73.5355 267.186 73.5355C268.574 73.5355 269.697 72.8418 270.556 71.4543C271.481 70.0668 272.075 67.8205 272.34 64.7152C272.472 63.7902 272.901 63.3277 273.628 63.3277C274.421 63.3277 274.817 63.8233 274.817 64.8143C274.619 69.9017 273.562 73.5685 271.646 75.8149C269.796 78.0613 267.616 79.1844 265.105 79.1844Z" fill="white"/>
<path d="M237.796 71.6525V32.9027C237.796 31.317 237.004 30.5242 235.418 30.5242H233.139C232.346 30.5242 231.949 30.1938 231.949 29.5331C231.949 28.8724 232.346 28.509 233.139 28.443C236.244 28.1126 237.796 26.7582 237.796 24.3797V23.7851C237.796 20.3494 238.292 17.1451 239.283 14.1719C240.34 11.1988 241.827 8.78726 243.743 6.93731C245.725 5.08736 248.136 4.16238 250.977 4.16238C253.62 4.16238 255.833 4.92218 257.617 6.44179C259.401 7.96139 260.293 9.7783 260.293 11.8925C260.293 13.1479 259.963 14.1059 259.302 14.7666C258.707 15.3612 257.882 15.6585 256.824 15.6585C255.503 15.6585 254.545 15.229 253.95 14.3701C253.422 13.5112 252.992 12.5532 252.662 11.4961C252.332 10.3729 251.902 9.38188 251.374 8.52298C250.911 7.66407 250.052 7.23462 248.797 7.23462C247.476 7.23462 246.418 7.99442 245.626 9.51403C244.899 10.9676 244.536 13.7425 244.536 17.8388V26.56C244.536 27.3528 244.932 27.7492 245.725 27.7492H254.248C255.239 27.7492 255.734 28.2117 255.734 29.1367C255.734 30.0617 255.239 30.5242 254.248 30.5242H245.725C244.932 30.5242 244.536 30.9206 244.536 31.7134V71.6525C244.536 73.04 244.734 73.998 245.13 74.5265C245.593 75.0551 246.518 75.3855 247.905 75.5176L253.158 76.0131C253.884 76.1452 254.248 76.5086 254.248 77.1033C254.248 77.8961 253.752 78.2925 252.761 78.2925H232.147C231.156 78.2925 230.661 77.9291 230.661 77.2024C230.661 76.4756 231.09 76.0792 231.949 76.0131L234.427 75.8149C235.814 75.6828 236.706 75.3194 237.103 74.7248C237.565 74.0641 237.796 73.04 237.796 71.6525Z" fill="white"/>
<path d="M207.132 79.1844C204.357 79.1844 202.078 78.3255 200.294 76.6077C198.51 74.8238 197.618 72.4784 197.618 69.5713C197.618 66.7303 198.51 64.0545 200.294 61.5438C202.078 58.9671 204.522 56.6547 207.628 54.6065C210.733 52.5584 214.268 50.9066 218.232 49.6513C219.091 49.387 219.52 48.8254 219.52 47.9665V38.948C219.52 35.7767 219.025 33.5303 218.034 32.2089C217.043 30.8215 215.688 30.1277 213.97 30.1277C212.319 30.1277 210.799 30.8875 209.412 32.4071C208.09 33.8607 207.132 36.3383 206.538 39.84C206.207 41.9542 205.48 43.5068 204.357 44.4979C203.3 45.4229 202.21 45.8853 201.087 45.8853C199.237 45.8853 198.312 44.9604 198.312 43.1104C198.312 41.1944 198.84 39.3114 199.898 37.4615C201.021 35.5454 202.474 33.8276 204.258 32.308C206.042 30.7224 207.991 29.467 210.105 28.5421C212.22 27.6171 214.334 27.1546 216.448 27.1546C222.989 27.1546 226.259 30.9536 226.259 38.5516V68.8776C226.259 71.6525 226.953 73.04 228.341 73.04C229.199 73.04 229.992 72.4784 230.719 71.3552C231.446 70.1659 231.809 68.1838 231.809 65.4089C231.809 64.3518 232.239 63.8232 233.098 63.8232C233.89 63.8232 234.287 64.3848 234.287 65.508C234.287 70.3311 233.428 73.8328 231.71 76.0131C230.058 78.1273 228.175 79.1844 226.061 79.1844C224.475 79.1844 223.22 78.5568 222.295 77.3015C221.37 75.9801 220.743 74.4274 220.412 72.6435C220.346 71.9829 220.049 71.6525 219.52 71.6525C219.058 71.5864 218.595 71.8837 218.133 72.5444C216.547 74.7247 214.928 76.3765 213.277 77.4997C211.625 78.6228 209.577 79.1844 207.132 79.1844ZM209.808 74.6256C211.526 74.6256 213.111 74.031 214.565 72.8418C216.019 71.5864 217.208 69.9347 218.133 67.8865C219.058 65.8384 219.52 63.5259 219.52 60.9492V53.7146C219.52 52.4593 218.827 52.0959 217.439 52.6244C213.409 54.078 210.27 56.0931 208.024 58.6698C205.844 61.1805 204.754 64.2197 204.754 67.7874C204.754 72.3462 206.438 74.6256 209.808 74.6256Z" fill="white"/>
<path d="M186.144 34.0919C188.853 29.467 192.123 27.1546 195.955 27.1546C198.135 27.1546 199.754 27.8153 200.811 29.1367C201.868 30.392 202.397 31.8125 202.397 33.3982C202.397 34.6535 202.066 35.6776 201.406 36.4704C200.811 37.2633 199.853 37.6597 198.532 37.6597C197.475 37.6597 196.682 37.4284 196.153 36.9659C195.691 36.4374 195.294 35.8428 194.964 35.1821C194.7 34.5214 194.369 33.9598 193.973 33.4973C193.577 32.9687 192.916 32.7045 191.991 32.7045C190.802 32.7045 189.678 33.4312 188.621 34.8847C187.564 36.2722 186.672 38.1552 185.945 40.5337C185.285 42.9122 184.954 45.6211 184.954 48.6603V71.6525C184.954 73.04 185.153 74.031 185.549 74.6256C186.012 75.2203 186.937 75.5836 188.324 75.7158L191 76.0131C191.727 76.1452 192.09 76.5086 192.09 77.1032C192.09 77.8961 191.594 78.2925 190.603 78.2925H173.855C172.864 78.2925 172.368 77.9291 172.368 77.2024C172.368 76.6077 172.798 76.2113 173.657 76.0131L174.846 75.8149C176.233 75.5506 177.125 75.1542 177.522 74.6256C177.984 74.031 178.215 73.04 178.215 71.6525V38.3534C178.215 37.1642 178.017 36.3713 177.621 35.9749C177.29 35.5124 176.663 35.2151 175.738 35.083L173.657 34.7856C172.798 34.7196 172.368 34.3562 172.368 33.6955C172.368 33.1669 172.897 32.8036 173.954 32.6053C176.002 32.275 177.555 31.7464 178.612 31.0197C179.735 30.2929 180.891 29.401 182.08 28.3439C182.675 27.7492 183.171 27.4519 183.567 27.4519C184.162 27.4519 184.459 27.8483 184.459 28.6412V33.9928C184.459 34.4553 184.657 34.7526 185.054 34.8847C185.45 34.9508 185.813 34.6865 186.144 34.0919Z" fill="white"/>
<path d="M160.588 79.1844C157.681 79.1844 155.038 78.2264 152.659 76.3104C150.347 74.3283 148.497 71.5204 147.11 67.8865C145.722 64.2527 145.028 59.9251 145.028 54.9039C145.028 49.2879 145.854 44.3988 147.506 40.2364C149.224 36.074 151.536 32.8696 154.443 30.6233C157.35 28.3108 160.588 27.1546 164.156 27.1546C167.195 27.1546 169.573 27.7492 171.291 28.9385C171.952 29.401 172.282 30.1277 172.282 31.1188L172.48 43.2095C172.48 44.2006 172.084 44.6961 171.291 44.6961C170.564 44.6961 170.102 44.2666 169.904 43.4077C168.979 39.7739 168.087 36.9659 167.228 34.9839C166.369 33.0018 165.477 31.6473 164.552 30.9206C163.627 30.1277 162.603 29.7313 161.48 29.7313C160.158 29.7313 158.771 30.4911 157.317 32.0107C155.93 33.5303 154.741 36.0079 153.75 39.4436C152.825 42.8131 152.362 47.2728 152.362 52.8227C152.362 59.8921 153.254 65.2107 155.038 68.7785C156.888 72.3462 159.266 74.1301 162.174 74.1301C164.486 74.1301 166.402 73.1721 167.922 71.2561C169.507 69.3401 170.862 65.8714 171.985 60.8501C172.183 60.1234 172.579 59.76 173.174 59.76C173.967 59.76 174.264 60.4207 174.066 61.7421C173.339 66.3669 172.315 69.9677 170.994 72.5444C169.738 75.0551 168.219 76.8059 166.435 77.797C164.717 78.722 162.768 79.1844 160.588 79.1844Z" fill="white"/>
<path d="M124.433 91.1761C123.773 91.1761 123.508 90.8127 123.641 90.0859L144.155 0.89194C144.287 0.297313 144.651 0 145.245 0H146.435C147.095 0 147.36 0.363382 147.227 1.09015L126.713 90.2841C126.581 90.8788 126.217 91.1761 125.623 91.1761H124.433Z" fill="white"/>
<path d="M111.812 34.0919C114.52 29.467 117.791 27.1546 121.623 27.1546C123.803 27.1546 125.422 27.8153 126.479 29.1367C127.536 30.392 128.065 31.8125 128.065 33.3982C128.065 34.6535 127.734 35.6776 127.074 36.4704C126.479 37.2633 125.521 37.6597 124.2 37.6597C123.142 37.6597 122.35 37.4284 121.821 36.9659C121.359 36.4374 120.962 35.8428 120.632 35.1821C120.368 34.5214 120.037 33.9598 119.641 33.4973C119.244 32.9687 118.584 32.7045 117.659 32.7045C116.469 32.7045 115.346 33.4312 114.289 34.8847C113.232 36.2722 112.34 38.1552 111.613 40.5337C110.953 42.9122 110.622 45.6211 110.622 48.6603V71.6525C110.622 73.04 110.82 74.031 111.217 74.6256C111.679 75.2203 112.604 75.5836 113.992 75.7158L116.668 76.0131C117.394 76.1452 117.758 76.5086 117.758 77.1032C117.758 77.8961 117.262 78.2925 116.271 78.2925H99.5226C98.5315 78.2925 98.036 77.9291 98.036 77.2024C98.036 76.6077 98.4655 76.2113 99.3244 76.0131L100.514 75.8149C101.901 75.5506 102.793 75.1542 103.189 74.6256C103.652 74.031 103.883 73.04 103.883 71.6525V38.3534C103.883 37.1642 103.685 36.3713 103.289 35.9749C102.958 35.5124 102.331 35.2151 101.406 35.083L99.3244 34.7856C98.4655 34.7196 98.036 34.3562 98.036 33.6955C98.036 33.1669 98.5646 32.8036 99.6217 32.6053C101.67 32.275 103.222 31.7464 104.28 31.0197C105.403 30.2929 106.559 29.401 107.748 28.3439C108.343 27.7492 108.838 27.4519 109.235 27.4519C109.829 27.4519 110.127 27.8483 110.127 28.6412V33.9928C110.127 34.4553 110.325 34.7526 110.721 34.8847C111.118 34.9508 111.481 34.6865 111.812 34.0919Z" fill="white"/>
<path d="M92.0061 18.3343C90.5526 18.3343 89.3633 17.8388 88.4383 16.8477C87.5134 15.7906 87.0509 14.5353 87.0509 13.0818C87.0509 11.5622 87.5134 10.3399 88.4383 9.41491C89.3633 8.42387 90.5526 7.92834 92.0061 7.92834C93.4596 7.92834 94.6158 8.42387 95.4747 9.41491C96.3997 10.3399 96.8622 11.5622 96.8622 13.0818C96.8622 14.6014 96.3997 15.8567 95.4747 16.8477C94.5498 17.8388 93.3936 18.3343 92.0061 18.3343ZM81.1046 99.6C79.1886 99.6 77.6029 99.1044 76.3476 98.1134C75.0923 97.1223 74.4646 95.834 74.4646 94.2483C74.4646 93.1251 74.828 92.1341 75.5548 91.2752C76.2154 90.4824 77.1404 90.0859 78.3297 90.0859C79.3868 90.0859 80.1466 90.3502 80.6091 90.8788C81.0716 91.4734 81.4349 92.1341 81.6992 92.8608C81.9635 93.5876 82.2939 94.2153 82.6903 94.7438C83.1528 95.3385 83.8135 95.6358 84.6724 95.6358C85.9277 95.6358 86.8857 94.909 87.5464 93.4555C88.2071 92.0019 88.5374 89.9538 88.5374 87.311V38.3534C88.5374 37.1642 88.3392 36.3713 87.9428 35.9749C87.6125 35.5124 86.9848 35.2151 86.0598 35.083L83.9786 34.7857C83.1197 34.7196 82.6903 34.3562 82.6903 33.6955C82.6903 33.1669 83.2188 32.8036 84.2759 32.6054C86.3241 32.275 87.9758 31.7464 89.2312 31.0197C90.4865 30.2929 91.7088 29.401 92.898 28.3439C93.4927 27.7492 93.9882 27.4519 94.3846 27.4519C94.9792 27.4519 95.2765 27.8483 95.2765 28.6412V73.9319C95.2765 81.8603 93.9882 88.1038 91.4115 92.6626C88.8347 97.2875 85.3991 99.6 81.1046 99.6Z" fill="white"/>
<path d="M75.3906 18.3343C74.0031 18.3343 72.8139 17.8388 71.8228 16.8477C70.8978 15.8567 70.4353 14.6014 70.4353 13.0818C70.4353 11.5622 70.8978 10.3399 71.8228 9.41491C72.8139 8.42387 74.0031 7.92834 75.3906 7.92834C76.778 7.92834 77.9342 8.42387 78.8592 9.41491C79.7842 10.3399 80.2467 11.5622 80.2467 13.0818C80.2467 14.6014 79.7842 15.8567 78.8592 16.8477C77.9342 17.8388 76.778 18.3343 75.3906 18.3343ZM67.0658 78.2925C66.0747 78.2925 65.5792 77.9291 65.5792 77.2024C65.5792 76.6077 66.0087 76.2113 66.8676 76.0131L68.0568 75.8149C69.7086 75.5506 70.7657 75.1542 71.2282 74.6256C71.6907 74.031 71.9219 73.04 71.9219 71.6525V38.3534C71.9219 37.1642 71.7237 36.3713 71.3273 35.9749C70.9969 35.5124 70.3693 35.2151 69.4443 35.083L67.3631 34.7857C66.5042 34.7196 66.0747 34.3562 66.0747 33.6955C66.0747 33.1669 66.6033 32.8036 67.6604 32.6054C69.7086 32.275 71.3603 31.7465 72.6156 31.0197C73.871 30.2929 75.0933 29.401 76.2825 28.3439C76.8771 27.7492 77.3727 27.4519 77.7691 27.4519C78.3637 27.4519 78.661 27.8483 78.661 28.6412V71.6525C78.661 73.04 78.8592 74.031 79.2556 74.6256C79.6521 75.2203 80.4119 75.5836 81.535 75.7158L84.0126 76.0131C84.7394 76.1452 85.1028 76.5086 85.1028 77.1032C85.1028 77.8961 84.6073 78.2925 83.6162 78.2925H67.0658Z" fill="white"/>
<path d="M53.2546 34.0919C55.9635 29.467 59.2339 27.1546 63.066 27.1546C65.2463 27.1546 66.865 27.8153 67.9221 29.1367C68.9792 30.392 69.5078 31.8125 69.5078 33.3982C69.5078 34.6535 69.1774 35.6776 68.5167 36.4704C67.9221 37.2633 66.9641 37.6597 65.6427 37.6597C64.5856 37.6597 63.7928 37.4284 63.2642 36.9659C62.8017 36.4374 62.4053 35.8428 62.0749 35.1821C61.8107 34.5214 61.4803 33.9598 61.0839 33.4973C60.6875 32.9687 60.0268 32.7045 59.1018 32.7045C57.9126 32.7045 56.7894 33.4312 55.7323 34.8847C54.6751 36.2722 53.7832 38.1552 53.0564 40.5337C52.3957 42.9122 52.0654 45.6211 52.0654 48.6603V71.6525C52.0654 73.04 52.2636 74.031 52.66 74.6256C53.1225 75.2203 54.0475 75.5836 55.4349 75.7158L58.1108 76.0131C58.8375 76.1452 59.2009 76.5086 59.2009 77.1032C59.2009 77.8961 58.7054 78.2925 57.7143 78.2925H40.9657C39.9746 78.2925 39.4791 77.9291 39.4791 77.2024C39.4791 76.6077 39.9086 76.2113 40.7675 76.0131L41.9567 75.8149C43.3442 75.5506 44.2361 75.1542 44.6326 74.6256C45.095 74.031 45.3263 73.04 45.3263 71.6525V38.3534C45.3263 37.1642 45.1281 36.3713 44.7317 35.9749C44.4013 35.5124 43.7737 35.2151 42.8487 35.083L40.7675 34.7856C39.9086 34.7196 39.4791 34.3562 39.4791 33.6955C39.4791 33.1669 40.0077 32.8036 41.0648 32.6053C43.113 32.275 44.6656 31.7464 45.7227 31.0197C46.8459 30.2929 48.0021 29.401 49.1914 28.3439C49.786 27.7492 50.2815 27.4519 50.6779 27.4519C51.2726 27.4519 51.5699 27.8483 51.5699 28.6412V33.9928C51.5699 34.4553 51.7681 34.7526 52.1645 34.8847C52.5609 34.9508 52.9243 34.6865 53.2546 34.0919Z" fill="white"/>
<path d="M19.92 79.1845C17.2111 79.1845 14.6014 78.3256 12.0907 76.6077C10.6372 75.6167 9.31582 75.881 8.12656 77.4006C7.46587 78.1273 6.97035 78.5898 6.64 78.788C6.30965 79.0523 5.9793 79.1845 5.64895 79.1845C4.92219 79.1845 4.65791 78.722 4.85612 77.797C5.1204 76.2774 5.31861 74.3283 5.45074 71.9498C5.58288 69.5713 5.64895 66.4 5.64895 62.4358V14.8657C5.64895 13.6764 5.45074 12.8836 5.05433 12.4872C4.72398 12.0247 4.09632 11.7274 3.17134 11.5952L1.09015 11.2979C0.363383 11.1658 0 10.7694 0 10.1087C0 9.44796 0.363383 9.05155 1.09015 8.9194C2.9401 8.52299 4.49273 8.0605 5.74806 7.53194C7.00338 7.00338 8.06049 6.47483 8.9194 5.94627C9.97651 5.28558 10.7693 4.95523 11.2979 4.95523C12.0247 4.95523 12.3881 5.48379 12.3881 6.5409V31.0197C12.3881 31.5483 12.5863 31.9116 12.9827 32.1098C13.4452 32.242 13.9407 32.0438 14.4692 31.5152C17.3102 28.6082 20.4155 27.1546 23.7851 27.1546C26.8243 27.1546 29.5001 28.1787 31.8125 30.2269C34.191 32.209 36.041 34.9839 37.3624 38.5516C38.7498 42.1194 39.4436 46.3148 39.4436 51.1379C39.4436 56.6217 38.5847 61.4778 36.8669 65.7063C35.149 69.9347 32.8036 73.2382 29.8304 75.6167C26.9234 77.9952 23.6199 79.1845 19.92 79.1845ZM19.7218 76.7069C23.4217 76.7069 26.3948 74.5266 28.6412 70.166C30.9536 65.8054 32.1098 59.9252 32.1098 52.5254C32.1098 45.7202 31.1188 40.5337 29.1367 36.966C27.1546 33.3982 24.3467 31.6143 20.7128 31.6143C18.4665 31.6143 16.5174 32.5393 14.8657 34.3892C13.2139 36.2392 12.3881 38.8159 12.3881 42.1194V67.0937C12.3881 70.0668 13.0488 72.4123 14.3701 74.1301C15.7576 75.8479 17.5415 76.7069 19.7218 76.7069Z" fill="white"/>
</svg>
