<svg width="329" height="136" viewBox="0 0 329 136" fill="none" xmlns="http://www.w3.org/2000/svg">
<path fill-rule="evenodd" clip-rule="evenodd" d="M56 0C64.8366 0 72 7.16344 72 16V48C72 56.8366 79.1634 64 88 64H120C128.837 64 136 71.1634 136 80V120C136 128.837 128.837 136 120 136H80C71.1634 136 64 128.837 64 120V88C64 79.1634 56.8366 72 48 72H16C7.16344 72 0 64.8366 0 56V16C0 7.16344 7.16344 0 16 0H56ZM200 0C208.837 0 216 7.16344 216 16V64V72V120C216 128.837 208.837 136 200 136H160C151.163 136 144 128.837 144 120V72V64V16C144 7.16344 151.163 0 160 0H200Z" fill="#111111"/>
<path d="M312.975 104.062C315.454 104.062 317.392 103.375 318.788 102C320.183 100.604 320.881 98.9479 320.881 97.0312C320.881 95.3646 320.215 93.8333 318.881 92.4375C317.548 91.0417 315.517 90.3438 312.788 90.3438C310.079 90.3438 308.121 91.0417 306.913 92.4375C305.704 93.8333 305.1 95.4688 305.1 97.3438C305.1 99.4479 305.881 101.094 307.444 102.281C309.006 103.469 310.85 104.062 312.975 104.062ZM313.319 126.219C315.923 126.219 318.079 125.521 319.788 124.125C321.517 122.708 322.381 120.604 322.381 117.812C322.381 114.917 321.496 112.719 319.725 111.219C317.954 109.719 315.683 108.969 312.913 108.969C310.225 108.969 308.027 109.74 306.319 111.281C304.631 112.802 303.788 114.917 303.788 117.625C303.788 119.958 304.558 121.979 306.1 123.688C307.663 125.375 310.069 126.219 313.319 126.219ZM305.319 106.219C303.756 105.552 302.538 104.771 301.663 103.875C300.017 102.208 299.194 100.042 299.194 97.375C299.194 94.0417 300.402 91.1771 302.819 88.7812C305.236 86.3854 308.663 85.1875 313.1 85.1875C317.392 85.1875 320.756 86.3229 323.194 88.5938C325.631 90.8438 326.85 93.4792 326.85 96.5C326.85 99.2917 326.142 101.552 324.725 103.281C323.933 104.26 322.704 105.219 321.038 106.156C322.892 107.01 324.35 107.99 325.413 109.094C327.392 111.177 328.381 113.885 328.381 117.219C328.381 121.156 327.058 124.5 324.413 127.25C321.767 129.979 318.027 131.344 313.194 131.344C308.84 131.344 305.152 130.167 302.131 127.812C299.131 125.438 297.631 122 297.631 117.5C297.631 114.854 298.277 112.573 299.569 110.656C300.861 108.719 302.777 107.24 305.319 106.219Z" fill="#111111"/>
<path d="M270.831 113.719C270.831 117.302 271.592 120.302 273.113 122.719C274.633 125.135 277.071 126.344 280.425 126.344C283.029 126.344 285.165 125.229 286.831 123C288.519 120.75 289.363 117.531 289.363 113.344C289.363 109.115 288.498 105.99 286.769 103.969C285.04 101.927 282.904 100.906 280.363 100.906C277.529 100.906 275.227 101.99 273.456 104.156C271.706 106.323 270.831 109.51 270.831 113.719ZM279.3 96C281.863 96 284.008 96.5417 285.738 97.625C286.738 98.25 287.873 99.3438 289.144 100.906V84H294.55V130.062H289.488V125.406C288.175 127.469 286.623 128.958 284.831 129.875C283.04 130.792 280.988 131.25 278.675 131.25C274.946 131.25 271.717 129.688 268.988 126.562C266.258 123.417 264.894 119.24 264.894 114.031C264.894 109.156 266.133 104.938 268.613 101.375C271.113 97.7917 274.675 96 279.3 96Z" fill="#111111"/>
<path d="M239.219 119.25C239.385 122.354 240.583 124.5 242.812 125.688C243.958 126.312 245.25 126.625 246.688 126.625C249.375 126.625 251.667 125.51 253.562 123.281C255.458 121.031 256.802 116.479 257.594 109.625C256.344 111.604 254.792 113 252.938 113.812C251.104 114.604 249.125 115 247 115C242.688 115 239.271 113.656 236.75 110.969C234.25 108.281 233 104.823 233 100.594C233 96.5312 234.24 92.9583 236.719 89.875C239.198 86.7917 242.854 85.25 247.688 85.25C254.208 85.25 258.708 88.1875 261.188 94.0625C262.562 97.2917 263.25 101.333 263.25 106.188C263.25 111.667 262.427 116.521 260.781 120.75C258.052 127.792 253.427 131.312 246.906 131.312C242.531 131.312 239.208 130.167 236.938 127.875C234.667 125.583 233.531 122.708 233.531 119.25H239.219ZM247.75 110.062C249.979 110.062 252.01 109.333 253.844 107.875C255.698 106.396 256.625 103.823 256.625 100.156C256.625 96.8646 255.792 94.4167 254.125 92.8125C252.479 91.1875 250.375 90.375 247.812 90.375C245.062 90.375 242.875 91.3021 241.25 93.1562C239.646 94.9896 238.844 97.4479 238.844 100.531C238.844 103.448 239.552 105.771 240.969 107.5C242.385 109.208 244.646 110.062 247.75 110.062Z" fill="#111111"/>
<path d="M235.425 5L237.849 11.4428L240.3 5H243V14H241.257V6.73793L238.623 14H237.102L234.455 6.73793V14H232.712V5H235.425ZM223 6.50207V5H231.1V6.50207H227.993V14H226.106V6.50207H223Z" fill="#111111"/>
</svg>
