<svg width="216" height="136" viewBox="0 0 216 136" fill="none" xmlns="http://www.w3.org/2000/svg">
<path fill-rule="evenodd" clip-rule="evenodd" d="M56 0C64.8366 0 72 7.16344 72 16V48C72 56.8366 79.1634 64 88 64H120C128.837 64 136 71.1634 136 80V120C136 128.837 128.837 136 120 136H80C71.1634 136 64 128.837 64 120V88C64 79.1634 56.8366 72 48 72H16C7.16344 72 0 64.8366 0 56V16C0 7.16344 7.16344 0 16 0H56ZM200 0C208.837 0 216 7.16344 216 16V64V72V120C216 128.837 208.837 136 200 136H160C151.163 136 144 128.837 144 120V72V64V16C144 7.16344 151.163 0 160 0H200Z" fill="#111111"/>
</svg>
